<svg width="92" height="92" viewBox="0 0 92 92" fill="none" xmlns="http://www.w3.org/2000/svg">
<defs>
<linearGradient id="paint0_linear_9_35" x1="0" y1="0" x2="92" y2="92" gradientUnits="userSpaceOnUse">
<stop stop-color="#0072B9"/>
<stop offset="1" stop-color="#4CA5DC"/>
</linearGradient>
</defs>
<circle cx="46" cy="46" r="46" fill="url(#paint0_linear_9_35)"/>
<path d="M27.7991 41.5286C29.3444 40.6436 31.275 41.2999 32.1113 42.9014L36.2314 51.3715C36.3086 51.5318 36.4434 51.6566 36.6085 51.7205C36.7736 51.7844 36.9567 51.7827 37.1205 51.7157C37.2504 51.6636 37.3617 51.5733 37.44 51.4566C37.5183 51.34 37.56 51.2023 37.5596 51.0614V27.5365C37.5596 26.1407 38.8391 25.1283 40.225 25.1283C41.611 25.1283 42.8138 26.1407 42.8138 27.5365V43.2546C42.8104 43.5481 42.9208 43.8314 43.1214 44.0443C43.322 44.2571 43.597 44.3828 43.8881 44.3945C44.0337 44.3973 44.1784 44.3708 44.3137 44.3166C44.449 44.2624 44.5722 44.1815 44.6761 44.0788C44.78 43.976 44.8626 43.8533 44.9189 43.718C44.9753 43.5827 45.0043 43.4374 45.0042 43.2907V22.72C45.0042 21.3242 46.0935 20.3117 47.4795 20.3117C48.8654 20.3117 49.9826 21.3242 49.9826 22.72V43.2546C49.9792 43.5481 50.0896 43.8314 50.2902 44.0443C50.4908 44.2571 50.7659 44.3828 51.0569 44.3945C51.2025 44.3973 51.3472 44.3708 51.4825 44.3166C51.6178 44.2624 51.741 44.1815 51.8449 44.0788C51.9488 43.976 52.0314 43.8533 52.0877 43.718C52.1441 43.5827 52.1731 43.4374 52.1731 43.2907V25.931C52.1731 24.5352 53.3758 23.5227 54.7618 23.5227C56.1478 23.5227 57.3505 24.6356 57.3505 26.0314V44.8601C57.3472 45.1536 57.4575 45.4369 57.6582 45.6498C57.8588 45.8626 58.1338 45.9883 58.4249 46C58.5704 46.0028 58.7151 45.9763 58.8504 45.9221C58.9857 45.8679 59.1089 45.787 59.2129 45.6843C59.3168 45.5815 59.3993 45.4589 59.4557 45.3236C59.512 45.1882 59.541 45.043 59.541 44.8962V32.3531C59.541 30.9573 60.6442 29.9448 62.0302 29.9448C63.4161 29.9448 64.5313 30.9703 64.5194 32.3531V54.0276C64.5194 65.8091 57.3505 71.6883 48.5887 71.6883H46.9956C38.2337 71.6883 35.4747 67.7147 33.4545 62.858L26.6172 45.8997C25.9541 44.0935 26.2548 42.4127 27.7991 41.5286Z" fill="white"/>
</svg>
