<svg width="32" height="32" viewBox="0 0 32 32" fill="none" xmlns="http://www.w3.org/2000/svg">
<circle cx="16" cy="16" r="16" fill="white"/>
<path fill-rule="evenodd" clip-rule="evenodd" d="M23.68 16.1818C23.68 15.6145 23.6291 15.0691 23.5345 14.5454H16V17.64H20.3055C20.12 18.64 19.5564 19.4873 18.7091 20.0545V22.0618H21.2945C22.8073 20.6691 23.68 18.6182 23.68 16.1818Z" fill="#4285F4"/>
<path fill-rule="evenodd" clip-rule="evenodd" d="M16 24C18.16 24 19.9709 23.2836 21.2945 22.0618L18.7091 20.0545C17.9927 20.5345 17.0763 20.8182 16 20.8182C13.9163 20.8182 12.1527 19.4109 11.5236 17.52H8.85089V19.5927C10.1673 22.2073 12.8727 24 16 24Z" fill="#34A853"/>
<path fill-rule="evenodd" clip-rule="evenodd" d="M11.5236 17.52C11.3636 17.04 11.2727 16.5273 11.2727 16C11.2727 15.4727 11.3636 14.96 11.5236 14.48V12.4073H8.85091C8.30909 13.4873 8 14.7091 8 16C8 17.2909 8.30909 18.5127 8.85091 19.5927L11.5236 17.52Z" fill="#FBBC05"/>
<path fill-rule="evenodd" clip-rule="evenodd" d="M16 11.1818C17.1745 11.1818 18.2291 11.5855 19.0582 12.3782L21.3527 10.0836C19.9673 8.79273 18.1563 8 16 8C12.8727 8 10.1673 9.79273 8.85089 12.4073L11.5236 14.48C12.1527 12.5891 13.9163 11.1818 16 11.1818Z" fill="#EA4335"/>
</svg>
